<svg width="70" height="70" viewBox="0 0 70 70" fill="none" xmlns="http://www.w3.org/2000/svg">
<path d="M23.1355 52.3513C24.4982 52.3513 25.603 51.2465 25.603 49.8838C25.603 48.521 24.4982 47.4163 23.1355 47.4163C21.7727 47.4163 20.668 48.521 20.668 49.8838C20.668 51.2465 21.7727 52.3513 23.1355 52.3513Z" fill="#FDB913"/>
<path d="M47.0556 49.8925C48.3894 49.8925 49.4706 48.8113 49.4706 47.4775C49.4706 46.1437 48.3894 45.0625 47.0556 45.0625C45.7219 45.0625 44.6406 46.1437 44.6406 47.4775C44.6406 48.8113 45.7219 49.8925 47.0556 49.8925Z" fill="#FDB913"/>
<path d="M30.5363 27.5626L31.7088 22.6101L34.9987 26.2939L38.7262 23.9664L38.315 28.9276L42.3837 31.2989L38.315 33.6964L39.68 38.2639L35.3925 35.9189L32.0587 40.1101L30.5363 35.3414L25.9688 35.1489L28.445 31.5701L25.9688 27.6326L30.5363 27.5626Z" fill="#FDB913"/>
<path d="M61.0563 42.5075L50.5126 45.3425C50.1054 44.582 49.4536 43.9811 48.6626 43.637C47.8715 43.2929 46.9876 43.2257 46.1536 43.4464C45.3197 43.667 44.5845 44.1625 44.0671 44.8528C43.5498 45.5431 43.2804 46.3877 43.3026 47.25L37.7551 48.7375C37.5863 47.9265 37.542 47.0944 37.6238 46.27L41.1238 45.3425C41.3407 45.276 41.5233 45.1279 41.6331 44.9294C41.7429 44.7308 41.7713 44.4974 41.7122 44.2783C41.6532 44.0593 41.5114 43.8717 41.3168 43.7552C41.1221 43.6387 40.8898 43.6023 40.6688 43.6538L38.3413 44.2838C38.9914 43.2969 39.9818 42.5837 41.1238 42.28L59.6738 37.3188C59.7848 37.2884 59.8886 37.2365 59.9795 37.1659C60.0703 37.0954 60.1463 37.0076 60.2032 36.9076C60.2601 36.8077 60.2967 36.6975 60.311 36.5834C60.3252 36.4692 60.3169 36.3534 60.2863 36.2425C60.2249 36.0205 60.0783 35.8316 59.8785 35.7169C59.6786 35.6022 59.4416 35.571 59.2188 35.63L54.6688 36.8463L53.7938 33.565L58.3438 32.375C58.4587 32.3452 58.5666 32.2929 58.6614 32.2214C58.7561 32.1498 58.8358 32.0603 58.8959 31.9579C58.956 31.8555 58.9954 31.7423 59.0118 31.6247C59.0282 31.5071 59.0212 31.3874 58.9913 31.2725C58.9615 31.1576 58.9092 31.0497 58.8377 30.955C58.7661 30.8603 58.6766 30.7806 58.5742 30.7205C58.4718 30.6603 58.3586 30.621 58.241 30.6046C58.1234 30.5882 58.0037 30.5952 57.8888 30.625L52.4988 32.0863L46.9601 33.5738C46.8484 33.6037 46.7437 33.6554 46.652 33.726C46.5604 33.7966 46.4837 33.8846 46.4263 33.985L42.9263 39.97L40.7388 40.5563C39.1113 40.961 37.6998 41.972 36.7926 43.3825C36.4351 43.9656 36.1778 44.6045 36.0313 45.2725C36.0249 45.2815 36.0215 45.2922 36.0215 45.3032C36.0215 45.3142 36.0249 45.3249 36.0313 45.3338C36.0272 45.3774 36.0272 45.4214 36.0313 45.465C35.7593 46.9905 35.8523 48.5586 36.3026 50.0413C36.3555 50.2306 36.4706 50.3965 36.6293 50.5124C36.7881 50.6282 36.9812 50.6873 37.1776 50.68H37.3351L43.7488 49C44.1015 49.6626 44.6413 50.2067 45.301 50.5645C45.9607 50.9224 46.7112 51.0782 47.4588 51.0125C47.683 50.9909 47.9052 50.9529 48.1238 50.8988C48.9567 50.6715 49.6889 50.171 50.2031 49.4775C50.7172 48.7841 50.9834 47.938 50.9588 47.075L61.4588 44.2488C61.5794 44.2249 61.6935 44.1759 61.7939 44.105C61.8942 44.0341 61.9785 43.9428 62.0412 43.8372C62.104 43.7315 62.1438 43.6138 62.158 43.4918C62.1722 43.3697 62.1606 43.246 62.1238 43.1288C62.0643 42.9051 61.9185 42.7141 61.7184 42.5977C61.5183 42.4812 61.2803 42.4488 61.0563 42.5075ZM47.7301 35.1838L52.1051 34.0113L52.9801 37.3013L45.3326 39.375L47.7301 35.1838ZM47.6776 49.1838C47.4124 49.2554 47.1356 49.273 46.8635 49.2354C46.5914 49.1978 46.3297 49.1059 46.0938 48.965C45.6234 48.6818 45.2767 48.232 45.1226 47.705C45.0611 47.4166 45.0611 47.1185 45.1226 46.83C45.1917 46.4414 45.3699 46.0804 45.6364 45.7892C45.9029 45.4979 46.2466 45.2884 46.6276 45.185C46.7463 45.1449 46.87 45.1214 46.9951 45.115C47.3258 45.09 47.6578 45.1454 47.9625 45.2764C48.2672 45.4074 48.5357 45.6103 48.7451 45.8675C48.9457 46.0929 49.0896 46.3629 49.1651 46.655C49.2268 46.9434 49.2268 47.2416 49.1651 47.53C49.092 47.9134 48.9144 48.269 48.6519 48.5578C48.3894 48.8465 48.0522 49.0571 47.6776 49.1663V49.1838Z" fill="#222222"/>
<path d="M34.1266 47.0401C34.1306 46.9965 34.1306 46.9525 34.1266 46.9089C34.1333 46.889 34.1333 46.8675 34.1266 46.8476C33.9206 46.1964 33.6071 45.5842 33.1991 45.0364C32.186 43.7233 30.7138 42.8418 29.0779 42.5689L26.7854 42.1664L22.7516 36.4964C22.6194 36.3077 22.4182 36.1788 22.1916 36.1376L16.5479 35.1401H16.4954L10.9916 34.1251C10.8778 34.105 10.7611 34.1077 10.6484 34.133C10.5356 34.1582 10.4289 34.2056 10.3346 34.2723C10.2402 34.339 10.16 34.4238 10.0985 34.5217C10.0371 34.6195 9.99567 34.7286 9.97662 34.8426C9.9539 34.9571 9.9543 35.0749 9.97781 35.1892C10.0013 35.3035 10.0474 35.412 10.1135 35.5082C10.1795 35.6044 10.2641 35.6864 10.3624 35.7494C10.4606 35.8124 10.5704 35.8552 10.6854 35.8751L15.3316 36.6976L14.7366 40.0401L10.0991 39.2264C9.98593 39.2062 9.86988 39.2085 9.7576 39.2333C9.64532 39.258 9.53901 39.3046 9.44475 39.3704C9.35048 39.4362 9.27011 39.52 9.20824 39.6169C9.14636 39.7138 9.10418 39.8219 9.08412 39.9351C9.06396 40.0483 9.06631 40.1644 9.09102 40.2766C9.11573 40.3889 9.16233 40.4952 9.22816 40.5895C9.29398 40.6838 9.37773 40.7641 9.47463 40.826C9.57152 40.8879 9.67966 40.93 9.79287 40.9501L28.7191 44.2839C29.8792 44.4905 30.9244 45.1126 31.6591 46.0339L29.2966 45.6226C29.1817 45.6025 29.064 45.6052 28.9501 45.6306C28.8363 45.656 28.7285 45.7036 28.6331 45.7706C28.5376 45.8377 28.4562 45.9228 28.3937 46.0213C28.3311 46.1198 28.2886 46.2296 28.2685 46.3445C28.2484 46.4594 28.2511 46.5771 28.2765 46.691C28.3019 46.8048 28.3495 46.9126 28.4165 47.0081C28.4835 47.1035 28.5687 47.1849 28.6672 47.2474C28.7656 47.31 28.8755 47.3525 28.9904 47.3726L32.4904 47.9939C32.6572 48.8115 32.6897 49.6508 32.5866 50.4789L26.9341 49.4814C26.8827 48.6183 26.5423 47.7977 25.9677 47.1517C25.3931 46.5057 24.6178 46.0718 23.7666 45.9201C23.2712 45.8312 22.763 45.8419 22.2717 45.9515C21.7804 46.0612 21.3159 46.2677 20.9054 46.5589C20.3386 46.9504 19.893 47.493 19.6191 48.1251L8.85662 46.2264C8.74171 46.2068 8.62408 46.2101 8.51045 46.236C8.39681 46.262 8.2894 46.31 8.19433 46.3775C8.00234 46.5137 7.87232 46.7205 7.83287 46.9526C7.79342 47.1847 7.84777 47.4229 7.98397 47.6149C8.12017 47.8069 8.32706 47.9369 8.55912 47.9764L19.3129 49.8751C19.3623 50.7374 19.701 51.5579 20.2741 52.204C20.8472 52.8502 21.6214 53.2843 22.4716 53.4364C22.6943 53.4737 22.9196 53.4942 23.1454 53.4976C23.9318 53.4941 24.6982 53.2498 25.3416 52.7976C25.9254 52.3914 26.3808 51.8267 26.6541 51.1701L33.2516 52.3251H33.4091C33.6163 52.3285 33.818 52.2582 33.9782 52.1268C34.1384 51.9954 34.2468 51.8115 34.2841 51.6076C34.5887 50.0937 34.5348 48.5295 34.1266 47.0401ZM16.4604 40.3551L17.0554 37.0039L21.5004 37.7914L24.2566 41.7289L16.4604 40.3551ZM24.3354 51.3626C24.1122 51.5218 23.8594 51.6348 23.592 51.6949C23.3245 51.755 23.0477 51.761 22.7779 51.7126C22.3885 51.6418 22.0273 51.4619 21.7361 51.194C21.4449 50.926 21.2358 50.581 21.1329 50.1989C21.0792 50.0261 21.0526 49.846 21.0541 49.6651C21.0455 49.5428 21.0455 49.42 21.0541 49.2976C21.0966 48.9829 21.2136 48.683 21.3954 48.4226C21.5402 48.2253 21.7143 48.0512 21.9116 47.9064C22.26 47.6612 22.6756 47.5298 23.1016 47.5301C23.2238 47.5172 23.347 47.5172 23.4691 47.5301C24.0113 47.6304 24.4923 47.9398 24.8082 48.3917C25.1242 48.8435 25.2498 49.4015 25.1579 49.9451C25.0473 50.4865 24.7343 50.9653 24.2829 51.2839L24.3354 51.3626Z" fill="#222222"/>
<path d="M31.9892 41.8424H31.8229C31.6492 41.81 31.4894 41.7259 31.3644 41.6009C31.2395 41.476 31.1553 41.3161 31.1229 41.1424L30.2479 36.1811L25.2342 36.7149C25.0586 36.735 24.8809 36.7015 24.7248 36.6187C24.5686 36.5359 24.4411 36.4078 24.3592 36.2511C24.2774 36.0953 24.2445 35.9184 24.2648 35.7436C24.2851 35.5688 24.3576 35.4041 24.4729 35.2711L27.7717 31.4561L24.2279 27.8686C24.1044 27.7432 24.0217 27.5833 23.9904 27.41C23.9592 27.2368 23.981 27.0581 24.0529 26.8974C24.1269 26.731 24.251 26.5918 24.4078 26.4993C24.5647 26.4067 24.7465 26.3654 24.9279 26.3811L29.9679 26.5824L30.5629 21.5686C30.584 21.3944 30.6571 21.2304 30.7726 21.0982C30.8881 20.966 31.0407 20.8716 31.2105 20.8272C31.3804 20.7829 31.5597 20.7906 31.7251 20.8495C31.8905 20.9084 32.0343 21.0157 32.1379 21.1574L35.1217 25.2261L39.4092 22.6011C39.5582 22.5097 39.7312 22.465 39.9059 22.4728C40.0806 22.4806 40.2489 22.5405 40.3892 22.6449C40.5298 22.7493 40.6358 22.8936 40.6935 23.0589C40.7512 23.2243 40.758 23.4032 40.7129 23.5724L39.4004 28.4461L44.1429 30.1436C44.3088 30.2018 44.4533 30.3085 44.5577 30.4499C44.662 30.5913 44.7214 30.7609 44.728 30.9365C44.7346 31.1122 44.6882 31.2857 44.5947 31.4346C44.5013 31.5835 44.3652 31.7007 44.2042 31.7711L39.5754 33.7749L41.1242 38.4999C41.1826 38.6666 41.1892 38.8471 41.1431 39.0176C41.097 39.1881 41.0004 39.3407 40.8659 39.4553C40.7315 39.5698 40.5655 39.641 40.3898 39.6595C40.2141 39.6779 40.037 39.6428 39.8817 39.5586L35.4367 37.1786L32.7242 41.4311C32.6462 41.556 32.5379 41.6591 32.4094 41.731C32.2809 41.8029 32.1364 41.8412 31.9892 41.8424ZM30.9129 34.3349C31.1201 34.3315 31.3218 34.4018 31.482 34.5332C31.6422 34.6646 31.7507 34.8486 31.7879 35.0524L32.4529 38.6224L34.4042 35.5599C34.5218 35.3742 34.7051 35.2396 34.9175 35.1828C35.1299 35.1261 35.3558 35.1514 35.5504 35.2536L38.7617 37.0036L37.6242 33.5211C37.5528 33.314 37.5617 33.0876 37.6492 32.8867C37.7367 32.6857 37.8964 32.525 38.0967 32.4361L41.4392 30.9924L37.9654 29.7499C37.7585 29.6761 37.5869 29.5271 37.4848 29.3325C37.3827 29.138 37.3574 28.9122 37.4142 28.6999L38.3679 25.1999L35.2792 27.1249C35.0928 27.2374 34.8713 27.2765 34.6577 27.2344C34.4441 27.1923 34.2539 27.0722 34.1242 26.8974L31.9717 23.9661L31.4992 27.5711C31.4734 27.7846 31.3699 27.981 31.2085 28.123C31.0472 28.2651 30.8391 28.3427 30.6242 28.3411L26.9929 28.2011L29.5479 30.8261C29.6955 30.9874 29.7773 31.1981 29.7773 31.4168C29.7773 31.6354 29.6955 31.8461 29.5479 32.0074L27.1679 34.7636L30.7904 34.3786L30.9129 34.3349Z" fill="#222222"/>
<path d="M48.1257 30.3187C48.0244 30.3176 47.9239 30.2998 47.8282 30.2662L41.6245 27.9999C41.4192 27.9244 41.2496 27.7747 41.1492 27.5804C41.0488 27.386 41.0248 27.1611 41.082 26.9499L43.2957 18.7512L36.077 23.2224C35.8899 23.3375 35.6663 23.378 35.4507 23.3359C35.2351 23.2937 35.0432 23.172 34.9132 22.9949L29.882 16.1437L28.8757 24.6137C28.848 24.8255 28.7437 25.0199 28.5825 25.1601C28.4213 25.3003 28.2144 25.3767 28.0007 25.3749L19.4957 25.0337L23.057 28.6562C23.1374 28.7383 23.2009 28.8355 23.2438 28.9422C23.2866 29.0489 23.3081 29.163 23.3068 29.278C23.3056 29.3929 23.2818 29.5065 23.2367 29.6123C23.1915 29.718 23.126 29.8139 23.0439 29.8943C22.9617 29.9747 22.8645 30.0382 22.7578 30.0811C22.6511 30.1239 22.5371 30.1454 22.4221 30.1442C22.3071 30.1429 22.1935 30.1191 22.0878 30.074C21.982 30.0288 21.8862 29.9633 21.8057 29.8812L16.7045 24.6837C16.581 24.5582 16.4982 24.3984 16.467 24.2251C16.4358 24.0518 16.4576 23.8731 16.5295 23.7124C16.6035 23.546 16.7275 23.4068 16.8844 23.3143C17.0412 23.2218 17.2231 23.1805 17.4045 23.1962L27.292 23.5899L28.4645 13.7549C28.4856 13.5806 28.5586 13.4167 28.6741 13.2845C28.7896 13.1523 28.9422 13.0578 29.1121 13.0135C29.2819 12.9691 29.4612 12.9769 29.6266 13.0358C29.792 13.0947 29.9359 13.202 30.0395 13.3437L35.8757 21.3412L44.2932 16.0912C44.4424 15.9994 44.6156 15.9546 44.7905 15.9623C44.9654 15.9701 45.134 16.0302 45.2744 16.1348C45.4148 16.2394 45.5206 16.3837 45.5781 16.5491C45.6356 16.7145 45.6422 16.8933 45.597 17.0624L42.972 26.6262L48.4495 28.5774C48.6804 28.6204 48.8848 28.7533 49.0177 28.9469C49.1506 29.1405 49.2012 29.379 49.1582 29.6099C49.1153 29.8408 48.9824 30.0452 48.7888 30.1781C48.5951 30.3111 48.3566 30.3616 48.1257 30.3187Z" fill="#222222"/>
</svg>
