<svg width="56" height="49" viewBox="0 0 56 49" fill="none" xmlns="http://www.w3.org/2000/svg">
<path d="M5.95 48.28C1.98333 41.0267 0 33.3767 0 25.33C0 17.0567 2.15333 8.61333 6.46 0L19.21 2.04C17.85 6.68667 17.17 11.56 17.17 16.66C17.17 24.0267 19.0967 31.8467 22.95 40.12L5.95 48.28ZM38.08 48.28C34.1133 41.0267 32.13 33.3767 32.13 25.33C32.13 17.0567 34.2833 8.61333 38.59 0L51.34 2.04C49.98 6.68667 49.3 11.56 49.3 16.66C49.3 24.0267 51.2267 31.8467 55.08 40.12L38.08 48.28Z" fill="#FDB913"/>
</svg>
