<svg width="70" height="70" viewBox="0 0 70 70" fill="none" xmlns="http://www.w3.org/2000/svg">
<g id="icons for advantages">
<path id="Vector" d="M34.7211 19.9677L28.4036 19.2852L24.3086 22.7502L24.6236 33.2064L27.5286 36.1902L34.7211 35.4027L39.3848 36.3914L43.2786 35.1927L45.5886 31.2202L45.1861 22.0764L42.1673 19.2852L37.5123 19.4864L34.7211 19.9677Z" fill="#FDB913"/>
<path id="Vector_2" d="M54.05 44.3007H53.175C53.2918 44.0227 53.3599 43.7267 53.3763 43.4257V38.2544C53.3716 37.521 53.0776 36.8191 52.5582 36.3013C52.0388 35.7835 51.3359 35.4917 50.6025 35.4894H44.6263C45.8507 34.158 46.5313 32.4158 46.5338 30.6069V23.9832C46.5338 21.6732 45.5013 17.7969 38.6062 17.7969C37.7133 17.79 36.8256 17.9349 35.9812 18.2257V16.7294C35.9625 16.5657 35.9962 16.4003 36.0775 16.2569C36.1636 16.2121 36.261 16.1938 36.3575 16.2044C36.5957 16.2321 36.8354 16.1665 37.0263 16.0213C37.2172 15.8761 37.3444 15.6626 37.3813 15.4257C37.4078 15.3061 37.409 15.1824 37.3847 15.0624C37.3604 14.9424 37.3112 14.8289 37.2403 14.7291C37.1693 14.6293 37.0783 14.5455 36.9729 14.4831C36.8676 14.4207 36.7503 14.3811 36.6287 14.3669C36.3208 14.3203 36.0067 14.3374 35.7056 14.4172C35.4046 14.497 35.1232 14.6377 34.8787 14.8307C34.6182 15.0699 34.4152 15.365 34.2849 15.6938C34.1546 16.0226 34.1004 16.3767 34.1263 16.7294V18.2257C33.2815 17.9364 32.3941 17.7915 31.5013 17.7969C24.6062 17.7969 23.5825 21.6732 23.5825 23.9832V30.6157C23.583 32.4206 24.2606 34.1598 25.4813 35.4894H15.9525C15.2192 35.4894 14.5159 35.7807 13.9973 36.2993C13.4788 36.8178 13.1875 37.5211 13.1875 38.2544V43.4257C13.1875 44.159 13.4788 44.8623 13.9973 45.3808C14.5159 45.8994 15.2192 46.1907 15.9525 46.1907H16.8275C16.7096 46.4774 16.6415 46.7822 16.6263 47.0919V52.2282C16.6286 52.9623 16.9218 53.6656 17.4417 54.1838C17.9617 54.7021 18.6659 54.9932 19.4 54.9932H54.05C54.7833 54.9932 55.4866 54.7019 56.0051 54.1833C56.5237 53.6648 56.815 52.9615 56.815 52.2282V47.0919C56.8173 46.7269 56.7476 46.3651 56.6097 46.0271C56.4719 45.6891 56.2688 45.3817 56.0119 45.1224C55.755 44.863 55.4495 44.657 55.1128 44.516C54.7762 44.375 54.415 44.3018 54.05 44.3007ZM25.3763 30.6069V23.9832C25.3763 21.0694 27.3537 19.6082 31.4487 19.6082C32.4673 19.5717 33.4751 19.8267 34.3537 20.3432L34.4412 20.4044C34.5148 20.464 34.5975 20.5113 34.6862 20.5444C34.9375 20.6239 35.2095 20.6051 35.4475 20.4919L35.5788 20.4044L35.6662 20.3432C36.5401 19.8228 37.5463 19.5675 38.5625 19.6082C42.6488 19.6082 44.6438 21.0257 44.6438 23.9832V30.5982C44.6438 31.0444 44.4688 35.0782 40.855 35.0782C39.476 35.105 38.0987 34.97 36.7513 34.6757C36.3629 34.6018 35.9882 34.4691 35.64 34.2819C35.4718 34.1609 35.2698 34.0957 35.0625 34.0957C34.8552 34.0957 34.6532 34.1609 34.485 34.2819C34.485 34.2819 33.2775 35.1044 29.1737 35.1044C25.5513 35.0782 25.3763 31.0532 25.3763 30.6069ZM50.6025 37.3007C50.847 37.3007 51.0816 37.3972 51.2553 37.5692C51.429 37.7413 51.5277 37.9749 51.53 38.2194V43.4257C51.5166 43.6624 51.413 43.8851 51.2405 44.0478C51.068 44.2106 50.8397 44.301 50.6025 44.3007H45.93V40.8007C45.9426 40.6719 45.928 40.5419 45.8873 40.4191C45.8467 40.2962 45.7807 40.1833 45.6938 40.0875C45.6069 39.9916 45.5008 39.9151 45.3825 39.8627C45.2642 39.8103 45.1363 39.7832 45.0069 39.7832C44.8775 39.7832 44.7495 39.8103 44.6312 39.8627C44.5129 39.9151 44.4069 39.9916 44.32 40.0875C44.233 40.1833 44.1671 40.2962 44.1264 40.4191C44.0857 40.5419 44.0712 40.6719 44.0838 40.8007V47.3719L42.8763 46.1644L41.3363 44.5982C41.2533 44.5083 41.1533 44.4358 41.0422 44.3848C40.9311 44.3337 40.811 44.3051 40.6888 44.3007C40.5721 44.2988 40.4563 44.3203 40.3481 44.3639C40.2399 44.4075 40.1415 44.4723 40.0588 44.5544L38.3088 46.1469L36.8825 47.5382V37.3007H50.6025ZM15.9525 44.3007C15.834 44.3066 15.7155 44.2884 15.6042 44.247C15.4929 44.2057 15.3912 44.1422 15.3053 44.0604C15.2194 43.9785 15.151 43.8801 15.1043 43.7709C15.0576 43.6618 15.0336 43.5443 15.0338 43.4257V38.2544C15.0223 38.1293 15.0378 38.0032 15.0795 37.8846C15.1211 37.766 15.1877 37.6578 15.2749 37.5673C15.3621 37.4768 15.4677 37.4062 15.5846 37.3602C15.7016 37.3141 15.827 37.2939 15.9525 37.3007H35.0013V44.3007H15.9525ZM54.9688 52.1757C54.9688 52.4077 54.8766 52.6303 54.7125 52.7944C54.5484 52.9585 54.3258 53.0507 54.0938 53.0507H19.4C19.1628 53.051 18.9345 52.9606 18.762 52.7978C18.5895 52.6351 18.4859 52.4124 18.4725 52.1757V47.0919C18.4748 46.8466 18.5732 46.612 18.7467 46.4386C18.9201 46.2651 19.1547 46.1667 19.4 46.1644H35.0013V49.6644C34.9978 49.8493 35.0491 50.031 35.1488 50.1867C35.2484 50.3424 35.3919 50.4651 35.5612 50.5394C35.7277 50.6119 35.9118 50.634 36.0906 50.6029C36.2695 50.5718 36.4353 50.4889 36.5675 50.3644L40.6275 46.5757L44.32 50.3382C44.4036 50.4283 44.5052 50.4998 44.6183 50.5481C44.7314 50.5963 44.8533 50.6202 44.9763 50.6182C45.0965 50.6191 45.2156 50.5953 45.3262 50.5482C45.5025 50.4827 45.6529 50.3623 45.7554 50.2047C45.8578 50.0471 45.9068 49.8608 45.895 49.6732V46.1732H54.015C54.2518 46.1866 54.4744 46.2902 54.6372 46.4627C54.7999 46.6352 54.8904 46.8635 54.89 47.1007L54.9688 52.1757Z" fill="#222222"/>
<path id="Vector_3" d="M35.4798 20.8687C35.3341 20.9547 35.1679 21 34.9986 20.9999C34.8899 20.9986 34.7826 20.9747 34.6836 20.9299C34.8138 20.9726 34.9512 20.9892 35.0878 20.9786C35.2245 20.9681 35.3577 20.9308 35.4798 20.8687Z" fill="#222222"/>
<path id="Vector_4" d="M27.5547 25.3226C27.3226 25.3226 27.1001 25.2304 26.936 25.0663C26.7719 24.9022 26.6797 24.6796 26.6797 24.4476C26.6797 23.6539 26.995 22.8927 27.5562 22.3315C28.1174 21.7703 28.8785 21.4551 29.6722 21.4551C29.801 21.4425 29.9309 21.457 30.0538 21.4977C30.1766 21.5384 30.2896 21.6043 30.3854 21.6913C30.4812 21.7782 30.5578 21.8842 30.6102 22.0025C30.6626 22.1208 30.6897 22.2488 30.6897 22.3782C30.6897 22.5076 30.6626 22.6355 30.6102 22.7538C30.5578 22.8721 30.4812 22.9782 30.3854 23.0651C30.2896 23.152 30.1766 23.218 30.0538 23.2586C29.9309 23.2993 29.801 23.3139 29.6722 23.3013C29.3682 23.3013 29.0766 23.4221 28.8617 23.637C28.6467 23.852 28.5259 24.1436 28.5259 24.4476C28.5101 24.6913 28.3998 24.9192 28.2183 25.0826C28.0369 25.2461 27.7987 25.3322 27.5547 25.3226Z" fill="#222222"/>
<rect id="Rectangle 165" x="21.1641" y="48.9351" width="6.83721" height="1.94444" rx="0.972222" fill="#222222"/>
</g>
</svg>
