<svg width="56" height="49" viewBox="0 0 56 49" fill="none" xmlns="http://www.w3.org/2000/svg">
<g id="Frame 738001234">
<path id="&#226;&#128;&#156;" d="M49.1301 -0.000705719C53.0967 7.25262 55.0801 14.9026 55.0801 22.9493C55.0801 31.2226 52.9267 39.666 48.6201 48.2793L35.8701 46.2393C37.2301 41.5926 37.9101 36.7193 37.9101 31.6193C37.9101 24.2526 35.9834 16.4326 32.1301 8.1593L49.1301 -0.000705719ZM17.0001 -0.000705719C20.9667 7.25262 22.9501 14.9026 22.9501 22.9493C22.9501 31.2226 20.7967 39.666 16.4901 48.2793L3.74007 46.2393C5.10007 41.5926 5.78008 36.7193 5.78008 31.6193C5.78008 24.2526 3.85341 16.4326 7.62939e-05 8.1593L17.0001 -0.000705719Z" fill="#FDB913"/>
</g>
</svg>
