<svg width="62" height="57" viewBox="0 0 62 57" fill="none" xmlns="http://www.w3.org/2000/svg">
<path d="M6.27893 54.1499C2.09298 46.4654 0 38.3606 0 29.8356C0 21.0705 2.27238 12.1252 6.81713 2.99988L20.272 5.16115C18.8368 10.084 18.1192 15.2471 18.1192 20.6502C18.1192 28.4548 20.1524 36.7397 24.2188 45.5048L6.27893 54.1499ZM40.1852 54.1499C35.9992 46.4654 33.9062 38.3606 33.9062 29.8356C33.9062 21.0705 36.1786 12.1252 40.7234 2.99988L54.1782 5.16115C52.7431 10.084 52.0255 15.2471 52.0255 20.6502C52.0255 28.4548 54.0586 36.7397 58.125 45.5048L40.1852 54.1499Z" fill="#FDB913"/>
</svg>
