<svg width="70" height="70" viewBox="0 0 70 70" fill="none" xmlns="http://www.w3.org/2000/svg">
<path d="M38.3339 17.3599H17.5352V40.5824H38.3339V17.3599Z" fill="#FDB913"/>
<path d="M54.25 20.1252H40.0838V19.1102C40.0838 18.1819 39.715 17.2917 39.0586 16.6353C38.4022 15.9789 37.512 15.6102 36.5838 15.6102H17.5V13.3789C17.5 13.1468 17.4078 12.9243 17.2437 12.7602C17.0796 12.5961 16.8571 12.5039 16.625 12.5039C16.3929 12.5039 16.1704 12.5961 16.0063 12.7602C15.8422 12.9243 15.75 13.1468 15.75 13.3789V56.6214C15.75 56.8535 15.8422 57.076 16.0063 57.2401C16.1704 57.4042 16.3929 57.4964 16.625 57.4964C16.8571 57.4964 17.0796 57.4042 17.2437 57.2401C17.4078 57.076 17.5 56.8535 17.5 56.6214V42.3327H33.425V43.3389C33.425 44.2672 33.7938 45.1574 34.4501 45.8138C35.1065 46.4702 35.9967 46.8389 36.925 46.8389H54.25C55.1783 46.8389 56.0685 46.4702 56.7249 45.8138C57.3813 45.1574 57.75 44.2672 57.75 43.3389V23.6252C57.75 22.6969 57.3813 21.8067 56.7249 21.1503C56.0685 20.4939 55.1783 20.1252 54.25 20.1252ZM17.5 40.5827V17.3602H36.5838C37.0479 17.3602 37.493 17.5445 37.8212 17.8727C38.1494 18.2009 38.3338 18.646 38.3338 19.1102V40.5827H17.5ZM35.4375 44.2402C35.2704 43.9785 35.1795 43.6755 35.175 43.3652V42.3327H37.4763L35.4375 44.2402ZM55.965 43.3652C55.965 43.8293 55.7806 44.2744 55.4524 44.6026C55.1242 44.9308 54.6791 45.1152 54.215 45.1152H37.1L39.375 42.9889C39.6006 42.782 39.7809 42.5305 39.9044 42.2504C40.0279 41.9703 40.0919 41.6676 40.0925 41.3614V21.8752H54.25C54.7141 21.8752 55.1592 22.0595 55.4874 22.3877C55.8156 22.7159 56 23.161 56 23.6252L55.965 43.3652Z" fill="#222222"/>
<path d="M36.1641 22.3564C36.3961 22.3564 36.6187 22.2643 36.7828 22.1002C36.9469 21.9361 37.0391 21.7135 37.0391 21.4814C37.0368 20.7279 36.7364 20.006 36.2036 19.4732C35.6708 18.9404 34.9488 18.64 34.1953 18.6377C33.9632 18.6377 33.7407 18.7299 33.5766 18.894C33.4125 19.0581 33.3203 19.2806 33.3203 19.5127C33.3203 19.7448 33.4125 19.9673 33.5766 20.1314C33.7407 20.2955 33.9632 20.3877 34.1953 20.3877C34.3389 20.3877 34.4812 20.416 34.6139 20.471C34.7466 20.5259 34.8671 20.6065 34.9687 20.708C35.0703 20.8096 35.1508 20.9302 35.2058 21.0629C35.2608 21.1956 35.2891 21.3378 35.2891 21.4814C35.2891 21.7135 35.3812 21.9361 35.5453 22.1002C35.7094 22.2643 35.932 22.3564 36.1641 22.3564Z" fill="#222222"/>
<path d="M50.8828 42.9712C50.8828 43.2033 50.975 43.4259 51.1391 43.59C51.3032 43.754 51.5257 43.8462 51.7578 43.8462C52.5105 43.8462 53.2325 43.5478 53.7656 43.0164C54.2986 42.485 54.5992 41.7639 54.6016 41.0112C54.6016 40.7792 54.5094 40.5566 54.3453 40.3925C54.1812 40.2284 53.9586 40.1362 53.7266 40.1362C53.4945 40.1362 53.2719 40.2284 53.1078 40.3925C52.9437 40.5566 52.8516 40.7792 52.8516 41.0112C52.8493 41.2998 52.733 41.5757 52.5281 41.779C52.3233 41.9822 52.0464 42.0962 51.7578 42.0962C51.5257 42.0962 51.3032 42.1884 51.1391 42.3525C50.975 42.5166 50.8828 42.7392 50.8828 42.9712Z" fill="#222222"/>
</svg>
