<svg width="70" height="70" viewBox="0 0 70 70" fill="none" xmlns="http://www.w3.org/2000/svg">
<path d="M26.1111 36.96C27.9523 36.96 29.4448 35.4674 29.4448 33.6262C29.4448 31.7851 27.9523 30.2925 26.1111 30.2925C24.2699 30.2925 22.7773 31.7851 22.7773 33.6262C22.7773 35.4674 24.2699 36.96 26.1111 36.96Z" fill="#FDB913"/>
<path d="M33.4003 41.0723H18.7266V46.9698H33.4003V41.0723Z" fill="#FDB913"/>
<path d="M35.2873 25.7163C38.5203 25.7163 41.1411 23.0955 41.1411 19.8625C41.1411 16.6296 38.5203 14.0088 35.2873 14.0088C32.0544 14.0088 29.4336 16.6296 29.4336 19.8625C29.4336 23.0955 32.0544 25.7163 35.2873 25.7163Z" fill="#FDB913"/>
<path d="M52.9975 23.686H42.9962C42.723 24.3084 42.3764 24.8959 41.9637 25.436H52.9975C53.9258 25.436 54.816 25.8048 55.4724 26.4612C56.1287 27.1175 56.4975 28.0078 56.4975 28.936V48.0548C56.4975 48.983 56.1287 49.8733 55.4724 50.5297C54.816 51.186 53.9258 51.5548 52.9975 51.5548H17C16.0717 51.5548 15.1815 51.186 14.5251 50.5297C13.8687 49.8733 13.5 48.983 13.5 48.0548V28.936C13.5 28.0078 13.8687 27.1175 14.5251 26.4612C15.1815 25.8048 16.0717 25.436 17 25.436H27.9987C27.5889 24.8957 27.2452 24.3081 26.975 23.686H17C15.6076 23.686 14.2723 24.2392 13.2877 25.2237C12.3031 26.2083 11.75 27.5436 11.75 28.936V48.0548C11.75 49.4472 12.3031 50.7825 13.2877 51.7671C14.2723 52.7517 15.6076 53.3048 17 53.3048H52.9975C54.3899 53.3048 55.7252 52.7517 56.7098 51.7671C57.6944 50.7825 58.2475 49.4472 58.2475 48.0548V28.936C58.2475 27.5436 57.6944 26.2083 56.7098 25.2237C55.7252 24.2392 54.3899 23.686 52.9975 23.686Z" fill="#222222"/>
<path d="M31.22 39.7686H21C20.0717 39.7686 19.1815 40.1373 18.5251 40.7937C17.8687 41.4501 17.5 42.3403 17.5 43.2686V47.4861C17.5 47.7181 17.5922 47.9407 17.7563 48.1048C17.9204 48.2689 18.1429 48.3611 18.375 48.3611H33.845C34.0771 48.3611 34.2996 48.2689 34.4637 48.1048C34.6278 47.9407 34.72 47.7181 34.72 47.4861V43.2686C34.72 42.3403 34.3513 41.4501 33.6949 40.7937C33.0385 40.1373 32.1483 39.7686 31.22 39.7686ZM32.97 46.6111H19.25V43.2686C19.25 42.8044 19.4344 42.3593 19.7626 42.0311C20.0908 41.7029 20.5359 41.5186 21 41.5186H31.22C31.6841 41.5186 32.1293 41.7029 32.4574 42.0311C32.7856 42.3593 32.97 42.8044 32.97 43.2686V46.6111Z" fill="#222222"/>
<path d="M26.0942 28.6211C25.1222 28.6177 24.1711 28.9028 23.3614 29.4405C22.5517 29.9781 21.9198 30.7441 21.5458 31.6412C21.1719 32.5384 21.0727 33.5264 21.2608 34.48C21.4489 35.4336 21.9159 36.3098 22.6026 36.9978C23.2893 37.6857 24.1647 38.1542 25.118 38.3441C26.0712 38.5339 27.0594 38.4365 27.9572 38.0641C28.855 37.6918 29.6221 37.0612 30.1612 36.2525C30.7003 35.4437 30.9872 34.4931 30.9855 33.5211C30.9832 32.2238 30.4674 30.9801 29.5508 30.0619C28.6343 29.1438 27.3915 28.6257 26.0942 28.6211ZM26.0942 36.6799C25.4687 36.6833 24.8563 36.501 24.3346 36.1561C23.8128 35.8111 23.4052 35.319 23.1635 34.7421C22.9217 34.1652 22.8566 33.5296 22.9765 32.9157C23.0964 32.3018 23.3959 31.7373 23.8369 31.2938C24.278 30.8503 24.8408 30.5477 25.454 30.4244C26.0672 30.3011 26.7032 30.3626 27.2814 30.6012C27.8596 30.8397 28.354 31.2446 28.7019 31.7644C29.0497 32.2842 29.2355 32.8956 29.2355 33.5211C29.2355 34.3559 28.9051 35.1567 28.3165 35.7485C27.7279 36.3404 26.9289 36.6753 26.0942 36.6799Z" fill="#222222"/>
<path d="M52.1341 32.9873H38.1953C37.9632 32.9873 37.7407 32.8951 37.5766 32.731C37.4125 32.5669 37.3203 32.3444 37.3203 32.1123C37.3203 31.8802 37.4125 31.6577 37.5766 31.4936C37.7407 31.3295 37.9632 31.2373 38.1953 31.2373H52.1341C52.3661 31.2373 52.5887 31.3295 52.7528 31.4936C52.9169 31.6577 53.0091 31.8802 53.0091 32.1123C53.0091 32.3444 52.9169 32.5669 52.7528 32.731C52.5887 32.8951 52.3661 32.9873 52.1341 32.9873Z" fill="#222222"/>
<path d="M52.1341 39.375H38.1953C37.9632 39.375 37.7407 39.2828 37.5766 39.1187C37.4125 38.9546 37.3203 38.7321 37.3203 38.5C37.3203 38.2679 37.4125 38.0454 37.5766 37.8813C37.7407 37.7172 37.9632 37.625 38.1953 37.625H52.1341C52.3661 37.625 52.5887 37.7172 52.7528 37.8813C52.9169 38.0454 53.0091 38.2679 53.0091 38.5C53.0091 38.7321 52.9169 38.9546 52.7528 39.1187C52.5887 39.2828 52.3661 39.375 52.1341 39.375Z" fill="#222222"/>
<path d="M52.1341 45.7539H38.1953C37.9632 45.7539 37.7407 45.6617 37.5766 45.4976C37.4125 45.3335 37.3203 45.111 37.3203 44.8789C37.3203 44.6468 37.4125 44.4243 37.5766 44.2602C37.7407 44.0961 37.9632 44.0039 38.1953 44.0039H52.1341C52.3661 44.0039 52.5887 44.0961 52.7528 44.2602C52.9169 44.4243 53.0091 44.6468 53.0091 44.8789C53.0091 45.111 52.9169 45.3335 52.7528 45.4976C52.5887 45.6617 52.3661 45.7539 52.1341 45.7539Z" fill="#222222"/>
<path d="M35.0018 13.1948C33.7759 13.2007 32.573 13.5284 31.5135 14.1451C30.454 14.7619 29.5751 15.6461 28.9646 16.7092C28.3542 17.7724 28.0337 18.9772 28.0352 20.2032C28.0366 21.4291 28.36 22.6331 28.973 23.6948C29.3477 24.3585 29.8364 24.9509 30.4168 25.4448C31.6829 26.562 33.3133 27.1784 35.0018 27.1784C36.6903 27.1784 38.3207 26.562 39.5868 25.4448C40.1671 24.9509 40.6559 24.3585 41.0305 23.6948C41.6435 22.6331 41.9669 21.4291 41.9684 20.2032C41.9699 18.9772 41.6493 17.7724 41.0389 16.7092C40.4285 15.6461 39.5496 14.7619 38.4901 14.1451C37.4306 13.5284 36.2277 13.2007 35.0018 13.1948ZM38.878 23.6948C38.1652 24.4676 37.2368 25.0086 36.213 25.2477C35.1892 25.4869 34.1173 25.4131 33.1359 25.036C32.1545 24.6589 31.3089 23.9959 30.7087 23.1327C30.1085 22.2696 29.7812 21.2461 29.7693 20.1948C29.7596 19.338 29.9597 18.4917 30.3523 17.73C30.7449 16.9683 31.318 16.3143 32.0216 15.8251C32.7251 15.3359 33.5377 15.0263 34.3884 14.9233C35.2391 14.8204 36.1021 14.9273 36.902 15.2347C37.7019 15.542 38.4144 16.0405 38.9773 16.6866C39.5402 17.3327 39.9364 18.1068 40.1313 18.9412C40.3262 19.7757 40.3139 20.6452 40.0955 21.4738C39.877 22.3024 39.459 23.0649 38.878 23.6948Z" fill="#222222"/>
<path d="M38.7544 18.6202C38.7257 18.7547 38.6658 18.8806 38.5794 18.9877L35.3069 23.0739C35.2264 23.1732 35.1251 23.2536 35.0103 23.3095C34.8954 23.3654 34.7696 23.3955 34.6419 23.3977C34.5176 23.3975 34.3949 23.3709 34.2817 23.3196C34.1686 23.2683 34.0676 23.1935 33.9856 23.1002L31.6406 20.4752L31.5006 20.3089C31.4038 20.1417 31.365 19.9472 31.3904 19.7557C31.4157 19.5642 31.5037 19.3864 31.6406 19.2502C31.6406 19.2502 31.6844 19.2502 31.7019 19.1889C31.876 19.036 32.1037 18.9584 32.335 18.9731C32.5663 18.9879 32.7823 19.0938 32.9356 19.2677L34.5981 21.1489L37.2231 17.8764C37.3267 17.7501 37.4635 17.6553 37.6181 17.6027C37.7728 17.5502 37.939 17.5419 38.0981 17.5789C38.2238 17.6053 38.3411 17.6625 38.4394 17.7452C38.5688 17.8467 38.667 17.9826 38.7227 18.1374C38.7785 18.2921 38.7894 18.4595 38.7544 18.6202Z" fill="#222222"/>
</svg>
