<svg width="62" height="80" viewBox="0 0 62 80" fill="none" xmlns="http://www.w3.org/2000/svg">
<path d="M31 63.9884C48.1208 63.9884 62 49.6641 62 31.9942C62 14.3243 48.1208 0 31 0C13.8792 0 0 14.3243 0 31.9942C0 49.6641 13.8792 63.9884 31 63.9884Z" fill="#FFB300"/>
<path d="M32.3412 20.222C36.6473 20.3929 38.6419 22.1588 40.3569 24.2094C42.0905 26.2981 43.1344 28.8804 43.358 31.6146L43.8614 37.8426L27.6437 37.9185C27.6437 37.9185 27.9792 44.0515 33.7579 44.0705C38.8283 44.0895 40.8788 42.8933 40.8788 42.8933L42.5751 47.3933C42.5751 47.3933 39.1825 50.7162 31.7447 50.7162C26.4879 50.7162 22.8157 47.6592 20.9702 45.0389C17.6521 39.1337 17.5775 33.6843 19.5721 27.3424C21.3989 21.5322 25.6118 19.9562 32.3412 20.222Z" fill="#222222"/>
<path d="M27.7183 9.58887H20.2246V17.2219H27.7183V9.58887Z" fill="#222222"/>
<path d="M35.2124 17.2219H27.7188V24.855H35.2124V17.2219Z" fill="#222222"/>
<path d="M27.7183 17.2219H20.2246V24.855H27.7183V17.2219Z" fill="#FFB300"/>
<path d="M35.2124 24.7791H27.7188V32.4121H35.2124V24.7791Z" fill="#FFB300"/>
<path d="M4.84659 72.9314L2.125 72.9694L2.14364 70.52H10.9608L10.2711 72.9504H7.68002V79.8999L4.84659 79.8429V72.9314Z" fill="#222222"/>
<path d="M13.7754 76.672C13.7754 74.6783 15.8445 73.7479 19.0881 73.8808C19.0135 73.0454 18.7898 72.5137 17.5595 72.5137C16.6088 72.5137 16.2919 72.5707 15.1921 73.1023L14.3346 71.1846C15.77 70.4441 16.3851 70.3491 18.1747 70.3491C21.0827 70.3491 22.0893 71.6783 22.0893 74.5834L22.1266 79.9189H19.8151L19.4609 79.0075H19.3863C18.4356 79.71 18.2679 79.9379 16.6647 79.9948C14.577 80.0708 13.7754 78.267 13.7754 76.672ZM19.0881 77.2227V75.7416C17.5782 75.8366 16.6461 75.8935 16.6461 76.5961C16.6461 77.2037 16.9071 77.7353 17.7086 77.7353C17.9883 77.7353 18.6966 77.7353 19.0881 77.2227Z" fill="#222222"/>
<path d="M26.041 70.501L28.9304 70.482V73.9947L30.0675 73.9758L30.4776 73.558C30.8318 73.0833 30.9995 72.5707 31.0741 72.4188L31.4842 71.3365C31.6333 71.0517 31.6892 70.9757 31.9316 70.7669L32.1926 70.596C32.4908 70.4061 32.845 70.3491 33.1992 70.3491H34.6345L34.6159 72.8935L34.0753 72.9314C33.4788 72.9314 33.311 73.1403 33.0128 73.672L32.8823 74.1277C32.7704 74.4884 32.584 74.7922 32.3417 75.0581L32.1926 75.21C32.4908 75.3239 32.9009 75.5517 33.05 75.8366L34.9514 79.8619H31.6892L30.1607 76.0834H28.949V79.8619H26.0597V70.501H26.041Z" fill="#222222"/>
<path d="M37.5795 74.8682C37.6727 71.6783 40.618 70.3682 42.2957 70.3682C43.6937 70.3682 44.4767 70.4821 45.2596 70.9758L45.2969 73.4821C44.7563 73.1024 43.9734 72.6847 43.1345 72.6657C41.3263 72.6277 40.5621 74.0708 40.5807 75.0201C40.5993 76.1974 41.1026 77.5265 42.743 77.6974C43.4887 77.7734 44.4394 77.4696 45.0359 77.0708L45.707 78.9886C44.6072 79.805 43.004 80.0898 41.7924 79.9759C39.369 79.7481 37.4863 78.0202 37.5795 74.8682Z" fill="#222222"/>
<path d="M48.9141 70.5009L51.7288 70.5389V73.0453C51.7288 73.9946 51.7102 74.7921 51.6916 75.9694C52.0644 75.3997 52.3813 74.944 52.7168 74.3744L55.2706 70.5579L58.0668 70.4819L58.1041 79.8618L55.2893 79.8049V77.3365C55.2893 76.3871 55.252 75.6846 55.3825 74.5073C55.0097 75.0769 54.8605 75.3238 54.5064 75.8744L51.8034 79.8808H48.9141V70.5009Z" fill="#222222"/>
</svg>
