<svg width="70" height="70" viewBox="0 0 70 70" fill="none" xmlns="http://www.w3.org/2000/svg">
<path d="M38.8239 19.355H23.6602V29.3125H38.8239V19.355Z" fill="#FDB913"/>
<path d="M30.923 49.2101C30.923 49.2101 25.2093 47.5738 27.0118 43.8988C28.0821 41.6958 29.5676 39.7201 31.3868 38.0801L35.0005 42.8051C35.0005 42.8051 37.3893 50.0763 30.923 49.2101Z" fill="#FDB913"/>
<path d="M55.1239 31.8411L48.4389 25.4886C48.2605 25.3128 48.02 25.2143 47.7695 25.2143C47.519 25.2143 47.2786 25.3128 47.1002 25.4886C46.9238 25.6686 46.825 25.9105 46.825 26.1624C46.825 26.4143 46.9238 26.6562 47.1002 26.8361L48.5264 28.1924V32.5149C48.5287 32.7663 48.6302 33.0067 48.8088 33.1836C48.9874 33.3606 49.2287 33.4599 49.4802 33.4599H53.4877V47.8799C53.4877 48.2628 53.3355 48.63 53.0648 48.9008C52.794 49.1715 52.4268 49.3236 52.0439 49.3236C51.661 49.3236 51.2938 49.1715 51.023 48.9008C50.7523 48.63 50.6002 48.2628 50.6002 47.8799V39.5061C50.6002 39.2532 50.4997 39.0106 50.3208 38.8317C50.1419 38.6529 49.8994 38.5524 49.6464 38.5524H44.3964V17.4999C44.3941 16.4934 43.9933 15.5289 43.2816 14.8172C42.5699 14.1055 41.6054 13.7047 40.5989 13.7024H21.9264C20.9192 13.7024 19.9533 14.1025 19.2412 14.8147C18.529 15.5268 18.1289 16.4927 18.1289 17.4999V52.4999C18.1312 53.5063 18.5321 54.4709 19.2437 55.1826C19.9554 55.8942 20.92 56.2951 21.9264 56.2974H31.2627C31.5126 56.2951 31.7516 56.1948 31.9283 56.0181C32.1051 55.8414 32.2054 55.6023 32.2077 55.3524V50.5749H32.4089C33.6392 50.3171 34.7428 49.6426 35.5335 48.6654C36.3242 47.6882 36.7535 46.4681 36.7489 45.2111C36.7489 42.5861 35.1214 40.6349 33.8177 39.0861C33.5639 38.7711 33.3189 38.4736 33.1002 38.2111C32.8882 37.9376 32.6163 37.7164 32.3052 37.5647C31.9942 37.4129 31.6525 37.3347 31.3064 37.3361C30.9674 37.3395 30.6336 37.42 30.3304 37.5716C30.0272 37.7232 29.7625 37.9419 29.5564 38.2111L28.8739 39.0861C27.5439 40.7136 25.8902 42.7349 25.8902 45.2899C25.8915 46.5348 26.3182 47.7419 27.0996 48.7111C27.881 49.6803 28.9701 50.3533 30.1864 50.6186H30.3877V54.4424H21.9264C21.6733 54.4425 21.4228 54.3919 21.1895 54.2938C20.9563 54.1956 20.745 54.0519 20.5681 53.8709C20.3912 53.6899 20.2522 53.4754 20.1594 53.24C20.0666 53.0045 20.0218 52.7529 20.0277 52.4999V17.4999C20.0277 16.9963 20.2277 16.5134 20.5838 16.1573C20.9399 15.8012 21.4228 15.6011 21.9264 15.6011H40.5989C41.1025 15.6011 41.5854 15.8012 41.9415 16.1573C42.2976 16.5134 42.4977 16.9963 42.4977 17.4999V52.4999C42.4977 53.0035 42.2976 53.4864 41.9415 53.8425C41.5854 54.1986 41.1025 54.3986 40.5989 54.3986H35.0514C34.8153 54.4213 34.5962 54.5312 34.4367 54.7067C34.2773 54.8822 34.1889 55.1109 34.1889 55.348C34.1889 55.5852 34.2773 55.8138 34.4367 55.9893C34.5962 56.1649 34.8153 56.2747 35.0514 56.2974H40.5989C41.6046 56.2928 42.5679 55.8912 43.2791 55.18C43.9902 54.4689 44.3918 53.5056 44.3964 52.4999V40.4511H48.6839V47.8799C48.6839 48.7664 49.0361 49.6166 49.6629 50.2434C50.2897 50.8702 51.1399 51.2224 52.0264 51.2224C52.9129 51.2224 53.7631 50.8702 54.3899 50.2434C55.0167 49.6166 55.3689 48.7664 55.3689 47.8799V32.5411C55.3785 32.2853 55.2909 32.0352 55.1239 31.8411ZM50.4514 31.5874V30.0211L52.0964 31.5874H50.4514ZM27.7102 45.2111C27.7102 43.3299 29.0664 41.7111 30.2564 40.2061C30.5102 39.8999 30.7552 39.5936 30.9739 39.3311C31.0079 39.287 31.0516 39.2514 31.1018 39.2271C31.1519 39.2028 31.207 39.1905 31.2627 39.1911C31.317 39.1911 31.3706 39.2038 31.4192 39.2281C31.4678 39.2524 31.5101 39.2877 31.5427 39.3311C31.7789 39.6374 32.0414 39.9524 32.3039 40.2761C33.4764 41.6936 34.8064 43.3036 34.8064 45.2286C34.8061 46.0082 34.5488 46.766 34.0742 47.3845C33.5996 48.003 32.9343 48.4478 32.1814 48.6499V44.0736C32.1587 43.8376 32.0489 43.6184 31.8734 43.459C31.6978 43.2995 31.4692 43.2111 31.232 43.2111C30.9949 43.2111 30.7662 43.2995 30.5907 43.459C30.4152 43.6184 30.3053 43.8376 30.2827 44.0736V48.6324C29.5402 48.4193 28.8875 47.9701 28.4233 47.3527C27.9591 46.7354 27.7087 45.9835 27.7102 45.2111Z" fill="#222222"/>
<path d="M38.6916 30.3187H23.4928C23.2414 30.3187 23.0001 30.2195 22.8215 30.0425C22.6429 29.8655 22.5414 29.6252 22.5391 29.3737V19.25C22.5391 19.1251 22.5638 19.0015 22.6118 18.8863C22.6599 18.7711 22.7303 18.6665 22.8189 18.5786C22.9076 18.4908 23.0128 18.4214 23.1285 18.3744C23.2442 18.3274 23.368 18.3038 23.4928 18.305H38.6916C38.8164 18.3038 38.9402 18.3274 39.0559 18.3744C39.1716 18.4214 39.2768 18.4908 39.3654 18.5786C39.4541 18.6665 39.5245 18.7711 39.5726 18.8863C39.6206 19.0015 39.6453 19.1251 39.6453 19.25V29.3737C39.643 29.6252 39.5415 29.8655 39.3629 30.0425C39.1843 30.2195 38.943 30.3187 38.6916 30.3187ZM24.4378 28.42H37.7466V20.1862H24.4378V28.42Z" fill="#222222"/>
</svg>
