<svg width="25" height="24" viewBox="0 0 25 24" fill="none" xmlns="http://www.w3.org/2000/svg">
<path fill-rule="evenodd" clip-rule="evenodd" d="M19.5 13H7.635L11.268 17.36C11.622 17.784 11.564 18.415 11.14 18.768C10.715 19.122 10.085 19.064 9.731 18.64L4.731 12.64C4.692 12.593 4.673 12.538 4.644 12.486C4.62 12.444 4.591 12.408 4.573 12.362C4.528 12.247 4.501 12.126 4.501 12.004C4.501 12.003 4.5 12.001 4.5 12C4.5 11.999 4.501 11.997 4.501 11.996C4.501 11.874 4.528 11.753 4.573 11.638C4.591 11.592 4.62 11.556 4.644 11.514C4.673 11.462 4.692 11.407 4.731 11.36L9.731 5.36C9.93 5.123 10.214 5 10.5 5C10.726 5 10.953 5.076 11.14 5.232C11.564 5.585 11.622 6.216 11.268 6.64L7.635 11H19.5C20.052 11 20.5 11.448 20.5 12C20.5 12.552 20.052 13 19.5 13" fill="white"/>
</svg>
