<svg width="23" height="23" viewBox="0 0 23 23" fill="none" xmlns="http://www.w3.org/2000/svg">
<path d="M11.2669 2.6768C11.3494 2.46393 11.6506 2.46392 11.7331 2.6768L13.4743 7.16921L14.1736 6.89817L13.4743 7.16921C13.7226 7.80984 14.3227 8.2459 15.0088 8.28408L19.8193 8.55179C20.0473 8.56447 20.1404 8.85093 19.9634 8.99518L16.2289 12.0393C15.6964 12.4734 15.4671 13.179 15.6428 13.8432L16.8747 18.5011C16.9331 18.7218 16.6894 18.8989 16.4976 18.7751L12.4484 16.1641C11.8709 15.7918 11.1291 15.7918 10.5516 16.1641L6.50244 18.7751C6.31057 18.8989 6.06689 18.7218 6.12527 18.5011L7.35722 13.8432C7.5329 13.179 7.30364 12.4734 6.77109 12.0393L3.0366 8.99517C2.85965 8.85093 2.95272 8.56447 3.18067 8.55179L7.99125 8.28408C8.67725 8.24591 9.27745 7.80984 9.52574 7.16921L8.82643 6.89817L9.52574 7.16921L11.2669 2.6768Z" fill="#FDB913" stroke="#FDB913" stroke-width="1.5"/>
</svg>
