<svg width="70" height="70" viewBox="0 0 70 70" fill="none" xmlns="http://www.w3.org/2000/svg">
<path d="M29.1739 38.4736L34.6864 45.0886L40.4264 38.4736H46.8577L50.5327 41.1424L52.7289 44.0299L52.9652 49.4549V57.3561L16.7227 57.0761V45.9636L20.1264 39.8036L24.3439 38.4736H29.1739Z" fill="#FDB913"/>
<path d="M34.9992 30.3012C35.9416 30.3012 36.7055 29.5373 36.7055 28.5949C36.7055 27.6526 35.9416 26.8887 34.9992 26.8887C34.0569 26.8887 33.293 27.6526 33.293 28.5949C33.293 29.5373 34.0569 30.3012 34.9992 30.3012Z" fill="#FDB913"/>
<path d="M53.9422 58.0999H16.0547V47.0662C16.0547 44.5135 17.0687 42.0653 18.8738 40.2603C20.6788 38.4552 23.127 37.4412 25.6797 37.4412H44.3172C46.8699 37.4412 49.3181 38.4552 51.1231 40.2603C52.9281 42.0653 53.9422 44.5135 53.9422 47.0662V58.0999ZM17.8047 56.3499H52.1922V47.0662C52.1922 44.9776 51.3625 42.9745 49.8857 41.4977C48.4088 40.0208 46.4058 39.1912 44.3172 39.1912H25.6797C23.5911 39.1912 21.5881 40.0208 20.1112 41.4977C18.6344 42.9745 17.8047 44.9776 17.8047 47.0662V56.3499Z" fill="#222222"/>
<path d="M49.6212 19.5649H47.8712C46.7538 17.092 44.9469 14.9939 42.667 13.5223C40.3871 12.0506 37.7311 11.2678 35.0175 11.2678C32.3038 11.2678 29.6478 12.0506 27.3679 13.5223C25.0881 14.9939 23.2811 17.092 22.1637 19.5649H20.1687C19.3723 19.6071 18.6223 19.9533 18.0735 20.532C17.5247 21.1107 17.2188 21.8779 17.2188 22.6755C17.2188 23.4731 17.5247 24.2403 18.0735 24.819C18.6223 25.3977 19.3723 25.7439 20.1687 25.7861H20.755C20.7074 26.2136 20.7447 26.6462 20.8648 27.0591C20.9849 27.4721 21.1855 27.8572 21.455 28.1924C21.8141 28.5776 22.2556 28.8768 22.7464 29.0677C23.2373 29.2586 23.7649 29.3363 24.29 29.2949H26.4162C27.3515 31.4176 29.0401 33.1185 31.156 34.0691C33.2719 35.0197 35.665 35.1525 37.8731 34.442C40.0813 33.7315 41.9478 32.228 43.1123 30.2218C44.2768 28.2157 44.6567 25.8492 44.1785 23.5794C43.7004 21.3096 42.3982 19.2975 40.5234 17.9316C38.6486 16.5656 36.3341 15.9429 34.027 16.1835C31.7199 16.4241 29.5838 17.511 28.0311 19.2344C26.4785 20.9577 25.6195 23.1953 25.62 25.5149C25.6192 26.198 25.6955 26.8789 25.8475 27.5449H24.29C24.0251 27.5816 23.7555 27.5633 23.498 27.491C23.2405 27.4188 23.0008 27.2941 22.7937 27.1249C22.5857 26.8546 22.4775 26.5208 22.4875 26.1799C22.4843 26.1304 22.4843 26.0807 22.4875 26.0311V25.8999C22.462 24.2322 22.7656 22.5759 23.3809 21.0257C23.9961 19.4755 24.911 18.0618 26.0732 16.8655C27.2353 15.6693 28.6219 14.7138 30.1537 14.054C31.6854 13.3941 33.3323 13.0427 35 13.0199C38.3619 13.066 41.5681 14.4447 43.9142 16.8532C46.2603 19.2616 47.5545 22.5029 47.5125 25.8649C47.512 26.4003 47.4384 26.9331 47.2937 27.4486C47.2566 27.5578 47.2415 27.6732 47.2492 27.7882C47.2568 27.9032 47.2872 28.0156 47.3384 28.1188C47.3896 28.2221 47.4607 28.3142 47.5477 28.3899C47.6346 28.4656 47.7356 28.5234 47.845 28.5599C47.9572 28.6037 48.0773 28.6238 48.1977 28.619C48.3182 28.6143 48.4363 28.5846 48.5447 28.5321C48.6532 28.4795 48.7496 28.4051 48.8279 28.3135C48.9062 28.2219 48.9648 28.1152 49 27.9999C49.2036 27.3005 49.3067 26.5758 49.3062 25.8474V25.7774H49.665C50.4614 25.7351 51.2113 25.389 51.7602 24.8103C52.309 24.2315 52.6149 23.4643 52.6149 22.6668C52.6149 21.8692 52.309 21.102 51.7602 20.5233C51.2113 19.9445 50.4614 19.5984 49.665 19.5561L49.6212 19.5649ZM20.8687 24.0361H20.1687C19.8267 24.0087 19.5076 23.8534 19.2748 23.6013C19.0421 23.3492 18.9129 23.0186 18.9129 22.6755C18.9129 22.3324 19.0421 22.0019 19.2748 21.7497C19.5076 21.4976 19.8267 21.3423 20.1687 21.3149H21.4637C21.1801 22.2012 20.9809 23.1123 20.8687 24.0361ZM35 17.9111C36.3441 17.9054 37.6659 18.2548 38.8316 18.9241C39.9973 19.5933 40.9655 20.5586 41.6382 21.7223C42.3109 22.886 42.6643 24.2067 42.6626 25.5508C42.6609 26.895 42.3041 28.2148 41.6284 29.3768C40.9527 30.5387 39.982 31.5015 38.8146 32.1678C37.6472 32.834 36.3245 33.1801 34.9804 33.1709C33.6363 33.1617 32.3185 32.7976 31.1603 32.1154C30.0021 31.4332 29.0447 30.4572 28.385 29.2861H32.0162C32.2268 30.0055 32.6897 30.6249 33.32 31.0305C33.9503 31.4362 34.7058 31.601 35.4478 31.4946C36.1898 31.3883 36.8685 31.0179 37.3595 30.4515C37.8505 29.8852 38.1208 29.1607 38.1208 28.4111C38.1208 27.6616 37.8505 26.9371 37.3595 26.3707C36.8685 25.8043 36.1898 25.434 35.4478 25.3277C34.7058 25.2213 33.9503 25.3861 33.32 25.7917C32.6897 26.1974 32.2268 26.8167 32.0162 27.5361H27.6412C27.4545 26.8757 27.3603 26.1925 27.3612 25.5061C27.3705 23.4863 28.1793 21.5523 29.6109 20.1273C31.0424 18.7024 32.9801 17.9024 35 17.9024V17.9111ZM33.6437 28.4111C33.64 28.0895 33.7553 27.7779 33.9675 27.5361C34.0945 27.3872 34.253 27.2683 34.4315 27.1881C34.6101 27.1079 34.8043 27.0684 35 27.0724C35.342 27.0998 35.6611 27.2551 35.8938 27.5072C36.1265 27.7594 36.2558 28.0899 36.2558 28.433C36.2558 28.7761 36.1265 29.1067 35.8938 29.3588C35.6611 29.6109 35.342 29.7662 35 29.7936C34.8029 29.7955 34.6078 29.7533 34.4292 29.67C34.2505 29.5867 34.0928 29.4645 33.9675 29.3124C33.7588 29.0686 33.644 28.7583 33.6437 28.4374V28.4111ZM49.6212 24.0361H49.1487C49.0365 23.1123 48.8373 22.2012 48.5537 21.3149H49.6212C49.9632 21.3423 50.2824 21.4976 50.5151 21.7497C50.7478 22.0019 50.877 22.3324 50.877 22.6755C50.877 23.0186 50.7478 23.3492 50.5151 23.6013C50.2824 23.8534 49.9632 24.0087 49.6212 24.0361Z" fill="#222222"/>
<path d="M35.0001 46.6549C34.8642 46.6549 34.7302 46.6233 34.6087 46.5625C34.4872 46.5018 34.3816 46.4136 34.3001 46.3049L28.6738 38.9111C28.5833 38.786 28.5275 38.6391 28.5122 38.4854C28.4968 38.3317 28.5224 38.1767 28.5863 38.0361C28.6578 37.8902 28.7685 37.7671 28.9061 37.6805C29.0436 37.594 29.2026 37.5474 29.3651 37.5461H40.6351C40.7983 37.5465 40.9582 37.5926 41.0966 37.6791C41.2351 37.7656 41.3466 37.8891 41.4185 38.0357C41.4904 38.1823 41.5199 38.346 41.5036 38.5085C41.4873 38.6709 41.4259 38.8255 41.3263 38.9549L35.7001 46.3049C35.6186 46.4136 35.5129 46.5018 35.3914 46.5625C35.2699 46.6233 35.1359 46.6549 35.0001 46.6549ZM31.1326 39.2524L35.0001 44.3361L38.8676 39.2524H31.1326Z" fill="#222222"/>
</svg>
