<svg width="24" height="24" viewBox="0 0 24 24" fill="none" xmlns="http://www.w3.org/2000/svg">
<path d="M6.5 10C6.5 8.067 8.067 6.5 10 6.5H14C15.933 6.5 17.5 8.067 17.5 10V14C17.5 15.933 15.933 17.5 14 17.5H10C8.067 17.5 6.5 15.933 6.5 14V10ZM10 5.5C7.51472 5.5 5.5 7.51472 5.5 10V14C5.5 16.4853 7.51472 18.5 10 18.5H14C16.4853 18.5 18.5 16.4853 18.5 14V10C18.5 7.51472 16.4853 5.5 14 5.5H10ZM0.5 8C0.5 3.85786 3.85786 0.5 8 0.5H16C20.1421 0.5 23.5 3.85786 23.5 8V16C23.5 20.1421 20.1421 23.5 16 23.5H8C3.85786 23.5 0.5 20.1421 0.5 16V8Z" stroke="#FDB913"/>
</svg>
