<svg width="24" height="24" viewBox="0 0 24 24" fill="none" xmlns="http://www.w3.org/2000/svg">
<path fill-rule="evenodd" clip-rule="evenodd" d="M12 24C18.6274 24 24 18.627 24 12C24 5.37305 18.6274 0 12 0C5.37256 0 0 5.37305 0 12C0 18.627 5.37256 24 12 24ZM13.9141 12.5L10.8 14.4287V10.5713L13.9141 12.5ZM17.8118 9.76562C17.7896 9.62793 17.7644 9.50488 17.7361 9.39453C17.5859 8.81641 17.238 8.44336 16.698 8.2832C16.0801 8.10254 14.5139 8 12 8L11.0459 8.03809C10.386 8.03809 9.67212 8.05762 8.89209 8.10254C8.1001 8.1416 7.58398 8.19922 7.302 8.2832C6.76196 8.44336 6.41406 8.81641 6.26392 9.39453C6.09595 10.0576 6 11.0918 6 12.5L6.03589 13.04C6.03589 13.4258 6.05396 13.8691 6.09595 14.3838C6.13208 14.8975 6.18604 15.3027 6.26392 15.6055C6.35303 15.9482 6.51147 16.2197 6.73853 16.416C6.89429 16.5508 7.08228 16.6514 7.302 16.7168C7.53906 16.7861 7.91553 16.8438 8.4314 16.8887C9.26074 16.9609 10.4502 17 12 17L12.9541 16.9619C13.614 16.9619 14.3279 16.9424 15.1079 16.8975C15.8999 16.8584 16.416 16.8008 16.698 16.7168C17.238 16.5566 17.5859 16.1836 17.7361 15.6055C17.8394 15.1982 17.9155 14.6504 17.9587 13.9619C17.9858 13.5303 18 13.043 18 12.5L17.9641 11.96C17.9641 11.5742 17.946 11.1309 17.9041 10.6162C17.8811 10.2891 17.8508 10.0059 17.8118 9.76562Z" fill="#AAAAAA"/>
</svg>
